<?xml version="1.0" encoding="UTF-8"?>
<svg width="169px" height="32px" viewBox="0 0 169 32" version="1.1" xmlns="http://www.w3.org/2000/svg" xmlns:xlink="http://www.w3.org/1999/xlink">
    <!-- Generator: Sketch 54.1 (76490) - https://sketchapp.com -->
    <title>logo</title>
    <desc>Created with Sketch.</desc>
    <defs>
        <polygon id="path-1" points="0 31.2899034 168.870548 31.2899034 168.870548 0 0 0"></polygon>
        <polygon id="path-3" points="0 31.2899034 168.870548 31.2899034 168.870548 0 0 0"></polygon>
        <polygon id="path-5" points="0 31.2899034 168.870548 31.2899034 168.870548 0 0 0"></polygon>
        <polygon id="path-7" points="0 31.2899034 168.870548 31.2899034 168.870548 0 0 0"></polygon>
        <polygon id="path-9" points="0 31.2899034 168.870548 31.2899034 168.870548 0 0 0"></polygon>
        <polygon id="path-11" points="0 31.2899034 168.870548 31.2899034 168.870548 0 0 0"></polygon>
        <polygon id="path-13" points="0 31.2899034 168.870548 31.2899034 168.870548 0 0 0"></polygon>
        <polygon id="path-15" points="0 31.2899034 168.870548 31.2899034 168.870548 0 0 0"></polygon>
        <polygon id="path-17" points="0 31.2899034 168.870548 31.2899034 168.870548 0 0 0"></polygon>
        <polygon id="path-19" points="0 31.2899034 168.870548 31.2899034 168.870548 0 0 0"></polygon>
        <polygon id="path-21" points="0 31.2899034 168.870548 31.2899034 168.870548 0 0 0"></polygon>
    </defs>
    <g id="Page-1" stroke="none" stroke-width="1" fill="none" fill-rule="evenodd">
        <g id="logo">
            <path d="M37.8969314,9.9119407 C36.4467089,9.9119407 35.2969807,10.637037 35.2969807,11.9624629 C35.2969807,13.3376454 37.021948,13.8874684 38.4219214,14.3627815 C40.9963726,15.2376476 43.8968176,16.3878003 43.8968176,19.9132683 C43.8968176,23.7640294 40.396634,25.3392385 37.496939,25.3392385 C34.8469892,25.3392385 32.8470271,24.4138657 30.9468132,22.5386168 L33.0470233,20.5133479 C34.5717444,21.9885437 35.7219726,22.6638834 37.5219385,22.6638834 C39.0716591,22.6638834 40.6216297,21.9135338 40.6216297,20.0885415 C40.6216297,18.4130691 38.8469134,17.7879862 37.021948,17.1378999 C34.6719925,16.287787 32.1967895,15.1376344 32.1967895,12.1122328 C32.1967895,8.78679135 34.8469892,7.23658558 37.7219347,7.23658558 C39.8968934,7.23658558 41.6718598,7.91167519 43.3715776,9.18709449 L41.5468622,11.4121398 C40.6466292,10.6120336 39.2466558,9.9119407 37.8969314,9.9119407 Z" id="Fill-1" fill="#FFFFFF" fill-rule="nonzero"></path>
            <g id="Fill-3-Clipped">
                <mask id="mask-2" fill="white">
                    <use xlink:href="#path-1"></use>
                </mask>
                <g id="path-1"></g>
                <path d="M46.5798667,25.0393237 L49.6048094,25.0393237 L49.6048094,12.1626145 L46.5798667,12.1626145 L46.5798667,25.0393237 Z M46.5798667,10.0620856 L49.6048094,10.0620856 L49.6048094,7.23671059 L46.5798667,7.23671059 L46.5798667,10.0620856 Z" id="Fill-3" fill="#FFFFFF" fill-rule="nonzero" mask="url(#mask-2)"></path>
            </g>
            <g id="Fill-5-Clipped">
                <mask id="mask-4" fill="white">
                    <use xlink:href="#path-3"></use>
                </mask>
                <g id="path-1"></g>
                <path d="M69.1546386,25.0390737 L69.1546386,18.5632141 C69.1546386,17.4880714 69.1546386,16.287912 68.7048972,15.4878058 C68.3299043,14.8377195 67.6799166,14.5126764 66.7799337,14.5126764 C65.7299536,14.5126764 64.6049749,15.187766 63.8299896,16.2629087 C63.9299877,16.8879917 63.9547372,17.6130879 63.9547372,18.3381842 L63.9547372,25.0390737 L60.9300446,25.0390737 L60.9300446,18.5632141 C60.9300446,17.4880714 60.9300446,16.2129021 60.4300541,15.4127959 C60.0798107,14.8127162 59.4548226,14.5126764 58.6298382,14.5126764 C57.6051076,14.5126764 56.4548795,15.3127826 55.7301432,16.2379054 L55.7301432,25.0390737 L52.7052006,25.0390737 L52.7052006,12.1623644 L55.4798979,12.1623644 L55.6051456,13.8875934 C56.6051266,12.5374142 58.1050982,11.8623246 59.4548226,11.8623246 C60.855046,11.8623246 62.1050223,12.4624042 62.9300067,13.6125569 C63.0300048,13.7625768 63.1050034,13.9125967 63.2050015,14.1126233 C64.3799792,12.4374009 66.0299479,11.8623246 67.5799185,11.8623246 C69.0796401,11.8623246 70.2546178,12.4624042 71.0298531,13.462537 C72.0048346,14.712703 72.2048308,16.437932 72.2048308,18.3381842 L72.2048308,25.0390737 L69.1546386,25.0390737 Z" id="Fill-5" fill="#FFFFFF" fill-rule="nonzero" mask="url(#mask-4)"></path>
            </g>
            <g id="Fill-6-Clipped">
                <mask id="mask-6" fill="white">
                    <use xlink:href="#path-5"></use>
                </mask>
                <g id="path-1"></g>
                <path d="M78.2933903,21.063571 C79.1683738,22.1887203 80.3931005,22.6887867 81.5930778,22.6887867 C84.1182799,22.6887867 85.3182571,20.5385013 85.3182571,18.5632391 C85.3182571,16.4629603 83.8930342,14.5127014 81.6430768,14.5127014 C80.4181001,14.5127014 79.0181266,15.1127811 78.2933903,16.5129669 L78.2933903,21.063571 Z M78.0181456,12.1623894 L78.1933922,13.8126085 C79.0931252,12.4374259 80.7933429,11.8623496 82.2180659,11.8623496 C85.7432491,11.8623496 88.3929488,14.8627479 88.3929488,18.638249 C88.3929488,22.163717 85.8429972,25.3391385 82.1683169,25.3391385 C80.8183425,25.3391385 79.2933714,24.8390721 78.2933903,23.7389261 L78.2933903,31.2899284 L75.2681977,31.2899284 L75.2681977,12.1623894 L78.0181456,12.1623894 Z" id="Fill-6" fill="#FFFFFF" fill-rule="nonzero" mask="url(#mask-6)"></path>
            </g>
            <g id="Fill-7-Clipped">
                <mask id="mask-8" fill="white">
                    <use xlink:href="#path-7"></use>
                </mask>
                <g id="path-1"></g>
                <polygon id="Fill-7" fill="#FFFFFF" fill-rule="nonzero" mask="url(#mask-8)" points="90.7412793 25.0390737 93.7662219 25.0390737 93.7662219 6.28658448 90.7412793 6.28658448"></polygon>
            </g>
            <g id="Fill-8-Clipped">
                <mask id="mask-10" fill="white">
                    <use xlink:href="#path-9"></use>
                </mask>
                <g id="path-1"></g>
                <path d="M102.623729,14.2876465 C100.773764,14.2876465 99.6987844,15.5378125 99.298792,17.1880315 L105.523674,17.1880315 C105.448675,15.5128092 104.223699,14.2876465 102.623729,14.2876465 L102.623729,14.2876465 Z M99.1237953,19.3633203 C99.3237915,21.2885758 100.623767,22.8637849 102.723727,22.8637849 C104.398695,22.8637849 105.473425,22.2136986 106.27366,20.8635194 L108.323621,22.2387019 C106.898898,24.3389807 105.22368,25.3391135 102.54873,25.3391135 C98.5738058,25.3391135 96.0738532,22.5137385 96.0738532,18.6882307 C96.0738532,14.8127162 98.8990496,11.8623246 102.54873,11.8623246 C106.048664,11.8623246 108.623615,14.3876598 108.623615,17.8381178 C108.623615,18.3131809 108.573616,18.8882572 108.498618,19.3633203 L99.1237953,19.3633203 Z" id="Fill-8" fill="#FFFFFF" fill-rule="nonzero" mask="url(#mask-10)"></path>
            </g>
            <g id="Fill-9-Clipped">
                <mask id="mask-12" fill="white">
                    <use xlink:href="#path-11"></use>
                </mask>
                <g id="path-1"></g>
                <path d="M119.978875,22.6137017 C121.329099,22.6137017 122.628825,22.1386387 123.754053,21.2637725 L125.478771,23.5138212 C123.828802,24.6889772 121.929088,25.3390635 119.903876,25.3390635 C114.654226,25.3390635 110.629052,21.7135822 110.629052,16.287862 C110.629052,11.1371783 114.803973,7.23666059 119.978875,7.23666059 C121.854089,7.23666059 123.504058,7.81173692 125.078778,8.78686636 L123.603806,11.187185 C122.554076,10.4370854 121.30385,9.96202235 119.978875,9.96202235 C116.478941,9.96202235 113.90399,12.6873841 113.90399,16.287862 C113.90399,20.1133698 116.303945,22.6137017 119.978875,22.6137017" id="Fill-9" fill="#FFFFFF" fill-rule="nonzero" mask="url(#mask-12)"></path>
            </g>
            <g id="Fill-10-Clipped">
                <mask id="mask-14" fill="white">
                    <use xlink:href="#path-13"></use>
                </mask>
                <g id="path-1"></g>
                <path d="M132.789682,14.5126514 C130.689722,14.5126514 129.18975,16.3378937 129.18975,18.5881924 C129.18975,20.8634944 130.689722,22.6887367 132.789682,22.6887367 C134.889642,22.6887367 136.389614,20.8634944 136.389614,18.5881924 C136.389614,16.3378937 134.889642,14.5126514 132.789682,14.5126514 M139.464555,18.5881924 C139.464555,22.3636935 136.639359,25.3390885 132.789682,25.3390885 C128.940005,25.3390885 126.114809,22.3636935 126.114809,18.5881924 C126.114809,14.8376945 128.940005,11.8622996 132.789682,11.8622996 C136.639359,11.8622996 139.464555,14.8376945 139.464555,18.5881924" id="Fill-10" fill="#FFFFFF" fill-rule="nonzero" mask="url(#mask-14)"></path>
            </g>
            <g id="Fill-11-Clipped">
                <mask id="mask-16" fill="white">
                    <use xlink:href="#path-15"></use>
                </mask>
                <g id="path-1"></g>
                <path d="M150.967562,16.1378671 C150.092579,15.0127178 148.867602,14.5126514 147.692374,14.5126514 C145.167672,14.5126514 143.967695,16.6631869 143.967695,18.638199 C143.967695,20.7384778 145.367668,22.6887367 147.642625,22.6887367 C148.842603,22.6887367 150.242576,22.088657 150.967562,20.6884712 L150.967562,16.1378671 Z M154.017254,25.0390487 L151.242557,25.0390487 L151.09256,23.3888296 C150.167577,24.7890155 148.492609,25.3390885 147.067386,25.3390885 C143.517704,25.3390885 140.892503,22.3136869 140.892503,18.5631891 C140.892503,15.0377211 143.417455,11.8622996 147.117885,11.8622996 C148.44261,11.8622996 149.967581,12.3873693 150.967562,13.4875153 L150.967562,6.28655947 L154.017254,6.28655947 L154.017254,25.0390487 Z" id="Fill-11" fill="#FFFFFF" fill-rule="nonzero" mask="url(#mask-16)"></path>
            </g>
            <g id="Fill-12-Clipped">
                <mask id="mask-18" fill="white">
                    <use xlink:href="#path-17"></use>
                </mask>
                <g id="path-1"></g>
                <path d="M162.870637,14.2876465 C161.020672,14.2876465 159.945442,15.5378125 159.54545,17.1880315 L165.770582,17.1880315 C165.695583,15.5128092 164.470606,14.2876465 162.870637,14.2876465 L162.870637,14.2876465 Z M159.370703,19.3633203 C159.570699,21.2885758 160.870674,22.8637849 162.970635,22.8637849 C164.645853,22.8637849 165.720332,22.2136986 166.520567,20.8635194 L168.570528,22.2387019 C167.145555,24.3389807 165.470587,25.3391135 162.795638,25.3391135 C158.820713,25.3391135 156.320761,22.5137385 156.320761,18.6882307 C156.320761,14.8127162 159.145707,11.8623246 162.795638,11.8623246 C166.295572,11.8623246 168.870523,14.3876598 168.870523,17.8381178 C168.870523,18.3131809 168.820524,18.8882572 168.745275,19.3633203 L159.370703,19.3633203 Z" id="Fill-12" fill="#FFFFFF" fill-rule="nonzero" mask="url(#mask-18)"></path>
            </g>
            <g id="Fill-13-Clipped">
                <mask id="mask-20" fill="white">
                    <use xlink:href="#path-19"></use>
                </mask>
                <g id="path-1"></g>
                <polygon id="Fill-13" fill="#FFFFFF" fill-rule="nonzero" mask="url(#mask-20)" points="12.8573812 22.2859082 -0.00012499763 12.8666579 9.41219652 -5.00066378e-05 12.1718942 2.02146833 4.77928437 12.1268097 14.8775929 19.5242916"></polygon>
            </g>
            <g id="Fill-14-Clipped">
                <mask id="mask-22" fill="white">
                    <use xlink:href="#path-21"></use>
                </mask>
                <g id="path-1"></g>
                <polygon id="Fill-14" fill="#FFFFFF" fill-rule="nonzero" mask="url(#mask-22)" points="15.5873044 31.2541236 12.8276068 29.2326053 20.2199666 19.1272639 10.1219081 11.729782 12.1423697 8.96816543 24.9993759 18.3874157"></polygon>
            </g>
        </g>
    </g>
</svg>